<svg xmlns="http://www.w3.org/2000/svg" viewBox="0 0 16 16" width="16" height="16">
  <path fill="#C5C5C5" d="M14 7.5v1a.5.5 0 0 1-.5.5H12a3.5 3.5 0 0 1-.125.3l.912.912a.5.5 0 0 1 0 .708l-1 1a.5.5 0 0 1-.708 0l-.912-.912A3.5 3.5 0 0 1 9.5 11v1.5a.5.5 0 0 1-.5.5h-1a.5.5 0 0 1-.5-.5V12a3.5 3.5 0 0 1-.3-.125l-.912.912a.5.5 0 0 1-.708 0l-1-1a.5.5 0 0 1 0-.708l.912-.912A3.5 3.5 0 0 1 5 9.5H3.5a.5.5 0 0 1-.5-.5v-1a.5.5 0 0 1 .5-.5H5a3.5 3.5 0 0 1 .125-.3l-.912-.912a.5.5 0 0 1 0-.708l1-1a.5.5 0 0 1 .708 0l.912.912A3.5 3.5 0 0 1 7.5 5V3.5a.5.5 0 0 1 .5-.5h1a.5.5 0 0 1 .5.5V5a3.5 3.5 0 0 1 .3.125l.912-.912a.5.5 0 0 1 .708 0l1 1a.5.5 0 0 1 0 .708l-.912.912A3.5 3.5 0 0 1 11 7.5h1.5a.5.5 0 0 1 .5.5zM8 10a2 2 0 1 0 0-4 2 2 0 0 0 0 4z"/>
</svg>
