<svg xmlns="http://www.w3.org/2000/svg" width="16" height="16" viewBox="0 0 16 16"><path fill="#f6f6f6" d="M8 0C4 0 1 1.72 1 4v8c0 2.28 3 4 7 4s7-1.72 7-4V4c0-2.28-3-4-7-4z"/><path fill="#4479a1" d="M8 1C4.69 1 2 2.34 2 4v8c0 1.66 2.69 3 6 3s6-1.34 6-3V4c0-1.66-2.69-3-6-3z"/><path fill="#f29111" d="M3 7.25c1.15.85 2.94 1.38 5 1.38s3.85-.53 5-1.38v1.5c-1.15.85-2.94 1.38-5 1.38s-3.85-.53-5-1.38z"/><path fill="#f29111" d="M3 10.25c1.15.85 2.94 1.38 5 1.38s3.85-.53 5-1.38V12c0 .78-1.95 1.88-5 1.88S3 12.78 3 12z"/><ellipse cx="8" cy="4" fill="#eaf3f8" rx="5" ry="1.88"/></svg>
