<svg xmlns="http://www.w3.org/2000/svg" width="16" height="16" viewBox="0 0 16 16"><path fill="#f6f6f6" d="M8 0C4 0 1 1.72 1 4v8c0 2.28 3 4 7 4s7-1.72 7-4V4c0-2.28-3-4-7-4z"/><path fill="#0f80cc" d="M8 1C4.69 1 2 2.34 2 4v8c0 1.66 2.69 3 6 3s6-1.34 6-3V4c0-1.66-2.69-3-6-3z"/><ellipse cx="8" cy="4" fill="#d8f0ff" rx="5" ry="1.88"/><path fill="#fff" d="M4.1 7.5c1.05.45 2.4.7 3.9.7s2.85-.25 3.9-.7v1.32c-1.05.45-2.4.7-3.9.7s-2.85-.25-3.9-.7z"/><path fill="#003b57" d="M10.6 3.7 7.55 13.9c.64.01 1.24-.04 1.82-.14l3.03-10.1c-.52.13-1.13.18-1.8.04z"/></svg>
