<svg xmlns="http://www.w3.org/2000/svg" width="16" height="16" viewBox="0 0 16 16"><path fill="#f6f6f6" d="M8 0C4 0 1 1.72 1 4v8c0 2.28 3 4 7 4s7-1.72 7-4V4c0-2.28-3-4-7-4z"/><path fill="#336791" d="M8 1C4.69 1 2 2.34 2 4v8c0 1.66 2.69 3 6 3s6-1.34 6-3V4c0-1.66-2.69-3-6-3z"/><path fill="#fff" d="M4.1 7.15h1.42c1.26 0 2.02-.68 2.02-1.72 0-1.08-.74-1.68-2.08-1.68H3.1v7.05h1zm0-2.58h1.28c.73 0 1.1.3 1.1.88 0 .56-.39.88-1.08.88H4.1z"/><path fill="#fff" d="M8.6 10.8h1V8.12h1.08c1.32 0 2.22-.82 2.22-2.13 0-1.36-.88-2.24-2.32-2.24H8.6zm1-3.5V4.58h.88c.86 0 1.34.5 1.34 1.4 0 .84-.49 1.32-1.32 1.32z"/></svg>
