<svg xmlns="http://www.w3.org/2000/svg" width="16" height="16" viewBox="0 0 16 16"><path fill="#f6f6f6" d="M8 0C4 0 1 1.72 1 4v8c0 2.28 3 4 7 4s7-1.72 7-4V4c0-2.28-3-4-7-4z"/><path fill="#f2c230" d="M8 1C4.69 1 2 2.34 2 4v8c0 1.66 2.69 3 6 3s6-1.34 6-3V4c0-1.66-2.69-3-6-3z"/><ellipse cx="8" cy="4" fill="#fff1a8" rx="5" ry="1.88"/><path fill="#202020" d="M5.15 6.55c.72-.7 1.8-1.1 3.05-1.1 1.92 0 3.45 1.08 3.45 2.6 0 1.55-1.53 2.63-3.45 2.63H5.15zm1.05 1v2.13h1.98c1.32 0 2.33-.62 2.33-1.63 0-.98-1.01-1.6-2.33-1.6H6.2z"/><circle cx="9.95" cy="7.72" r=".42" fill="#202020"/></svg>
